<svg xmlns="http://www.w3.org/2000/svg" xmlns:xlink="http://www.w3.org/1999/xlink" contentStyleType="text/css" data-diagram-type="SEQUENCE" height="803px" preserveAspectRatio="none" style="width:1036px;height:803px;background:#FFFFFF;" version="1.1" viewBox="0 0 1036 803" width="1036px" zoomAndPan="magnify"><defs/><g><g><title>Vulkan</title><rect fill="#FFFFFF" height="388.5938" style="stroke:#181818;stroke-width:1;" width="10" x="542.0503" y="141.5625"/></g><g><title>Vulkan</title><rect fill="#FFFFFF" height="29.1328" style="stroke:#181818;stroke-width:1;" width="10" x="547.0503" y="141.5625"/></g><g><title>GPU</title><rect fill="#FFFFFF" height="29.1328" style="stroke:#181818;stroke-width:1;" width="10" x="903.6104" y="559.2891"/></g><g><title>GPU</title><rect fill="#FFFFFF" height="29.1328" style="stroke:#181818;stroke-width:1;" width="10" x="903.6104" y="646.6875"/></g><g><title>Swapchain</title><rect fill="#FFFFFF" height="330.3281" style="stroke:#181818;stroke-width:1;" width="10" x="980.2368" y="199.8281"/></g><g><title>Application</title><rect fill="#000000" fill-opacity="0.00000" height="641.6563" width="8" x="43.1118" y="81.2969"/><line style="stroke:#181818;stroke-width:0.5;stroke-dasharray:5,5;" x1="47" x2="47" y1="81.2969" y2="722.9531"/></g><g><title>CPU</title><rect fill="#000000" fill-opacity="0.00000" height="641.6563" width="8" x="150.9009" y="81.2969"/><line style="stroke:#181818;stroke-width:0.5;stroke-dasharray:5,5;" x1="154.6685" x2="154.6685" y1="81.2969" y2="722.9531"/></g><g><title>Vulkan</title><rect fill="#000000" fill-opacity="0.00000" height="641.6563" width="8" x="543.0503" y="81.2969"/><line style="stroke:#181818;stroke-width:0.5;stroke-dasharray:5,5;" x1="546.1006" x2="546.1006" y1="81.2969" y2="722.9531"/></g><g><title>GPU</title><rect fill="#000000" fill-opacity="0.00000" height="641.6563" width="8" x="904.6104" y="81.2969"/><line style="stroke:#181818;stroke-width:0.5;stroke-dasharray:5,5;" x1="907.8413" x2="907.8413" y1="81.2969" y2="722.9531"/></g><g><title>Swapchain</title><rect fill="#000000" fill-opacity="0.00000" height="641.6563" width="8" x="981.2368" y="81.2969"/><line style="stroke:#181818;stroke-width:0.5;stroke-dasharray:5,5;" x1="984.3794" x2="984.3794" y1="81.2969" y2="722.9531"/></g><g class="participant participant-head" data-participant="Application"><text fill="#000000" font-family="sans-serif" font-size="14" lengthAdjust="spacing" textLength="78.2236" x="5" y="77.9951">Application</text><ellipse cx="47.1118" cy="13.5" fill="#E2E2F0" rx="8" ry="8" style="stroke:#181818;stroke-width:0.5;"/><path d="M47.1118,21.5 L47.1118,48.5 M34.1118,29.5 L60.1118,29.5 M47.1118,48.5 L34.1118,63.5 M47.1118,48.5 L60.1118,63.5" fill="none" style="stroke:#181818;stroke-width:0.5;"/></g><g class="participant participant-tail" data-participant="Application"><text fill="#000000" font-family="sans-serif" font-size="14" lengthAdjust="spacing" textLength="78.2236" x="5" y="734.9482">Application</text><ellipse cx="47.1118" cy="746.75" fill="#E2E2F0" rx="8" ry="8" style="stroke:#181818;stroke-width:0.5;"/><path d="M47.1118,754.75 L47.1118,781.75 M34.1118,762.75 L60.1118,762.75 M47.1118,781.75 L34.1118,796.75 M47.1118,781.75 L60.1118,796.75" fill="none" style="stroke:#181818;stroke-width:0.5;"/></g><g class="participant participant-head" data-participant="CPU"><rect fill="#E2E2F0" height="30.2969" rx="2.5" ry="2.5" style="stroke:#181818;stroke-width:0.5;" width="42.4648" x="133.6685" y="50"/><text fill="#000000" font-family="sans-serif" font-size="14" lengthAdjust="spacing" textLength="28.4648" x="140.6685" y="69.9951">CPU</text></g><g class="participant participant-tail" data-participant="CPU"><rect fill="#E2E2F0" height="30.2969" rx="2.5" ry="2.5" style="stroke:#181818;stroke-width:0.5;" width="42.4648" x="133.6685" y="721.9531"/><text fill="#000000" font-family="sans-serif" font-size="14" lengthAdjust="spacing" textLength="28.4648" x="140.6685" y="741.9482">CPU</text></g><g class="participant participant-head" data-participant="Vulkan"><rect fill="#E2E2F0" height="30.2969" rx="2.5" ry="2.5" style="stroke:#181818;stroke-width:0.5;" width="61.8994" x="516.1006" y="50"/><text fill="#000000" font-family="sans-serif" font-size="14" lengthAdjust="spacing" textLength="47.8994" x="523.1006" y="69.9951">Vulkan</text></g><g class="participant participant-tail" data-participant="Vulkan"><rect fill="#E2E2F0" height="30.2969" rx="2.5" ry="2.5" style="stroke:#181818;stroke-width:0.5;" width="61.8994" x="516.1006" y="721.9531"/><text fill="#000000" font-family="sans-serif" font-size="14" lengthAdjust="spacing" textLength="47.8994" x="523.1006" y="741.9482">Vulkan</text></g><g class="participant participant-head" data-participant="GPU"><rect fill="#E2E2F0" height="30.2969" rx="2.5" ry="2.5" style="stroke:#181818;stroke-width:0.5;" width="43.5381" x="886.8413" y="50"/><text fill="#000000" font-family="sans-serif" font-size="14" lengthAdjust="spacing" textLength="29.5381" x="893.8413" y="69.9951">GPU</text></g><g class="participant participant-tail" data-participant="GPU"><rect fill="#E2E2F0" height="30.2969" rx="2.5" ry="2.5" style="stroke:#181818;stroke-width:0.5;" width="43.5381" x="886.8413" y="721.9531"/><text fill="#000000" font-family="sans-serif" font-size="14" lengthAdjust="spacing" textLength="29.5381" x="893.8413" y="741.9482">GPU</text></g><g class="participant participant-head" data-participant="Swapchain"><rect fill="#E2E2F0" height="30.2969" rx="2.5" ry="2.5" style="stroke:#181818;stroke-width:0.5;" width="89.7148" x="940.3794" y="50"/><text fill="#000000" font-family="sans-serif" font-size="14" lengthAdjust="spacing" textLength="75.7148" x="947.3794" y="69.9951">Swapchain</text></g><g class="participant participant-tail" data-participant="Swapchain"><rect fill="#E2E2F0" height="30.2969" rx="2.5" ry="2.5" style="stroke:#181818;stroke-width:0.5;" width="89.7148" x="940.3794" y="721.9531"/><text fill="#000000" font-family="sans-serif" font-size="14" lengthAdjust="spacing" textLength="75.7148" x="947.3794" y="741.9482">Swapchain</text></g><g><title>Vulkan</title><rect fill="#FFFFFF" height="388.5938" style="stroke:#181818;stroke-width:1;" width="10" x="542.0503" y="141.5625"/></g><g><title>Vulkan</title><rect fill="#FFFFFF" height="29.1328" style="stroke:#181818;stroke-width:1;" width="10" x="547.0503" y="141.5625"/></g><g><title>GPU</title><rect fill="#FFFFFF" height="29.1328" style="stroke:#181818;stroke-width:1;" width="10" x="903.6104" y="559.2891"/></g><g><title>GPU</title><rect fill="#FFFFFF" height="29.1328" style="stroke:#181818;stroke-width:1;" width="10" x="903.6104" y="646.6875"/></g><g><title>Swapchain</title><rect fill="#FFFFFF" height="330.3281" style="stroke:#181818;stroke-width:1;" width="10" x="980.2368" y="199.8281"/></g><g class="message" data-participant-1="Application" data-participant-2="CPU"><polygon fill="#181818" points="142.9009,108.4297,152.9009,112.4297,142.9009,116.4297,146.9009,112.4297" style="stroke:#181818;stroke-width:1;"/><line style="stroke:#181818;stroke-width:1;" x1="47.1118" x2="148.9009" y1="112.4297" y2="112.4297"/><text fill="#000000" font-family="sans-serif" font-size="13" lengthAdjust="spacing" textLength="83.7891" x="54.1118" y="107.3638">drawFrame()</text></g><g class="message" data-participant-1="CPU" data-participant-2="Vulkan"><polygon fill="#181818" points="535.0503,137.5625,545.0503,141.5625,535.0503,145.5625,539.0503,141.5625" style="stroke:#181818;stroke-width:1;"/><line style="stroke:#181818;stroke-width:1;" x1="154.9009" x2="541.0503" y1="141.5625" y2="141.5625"/><text fill="#000000" font-family="sans-serif" font-size="13" lengthAdjust="spacing" textLength="129.9302" x="161.9009" y="136.4966">acquireNextImage()</text></g><g class="message" data-participant-1="Vulkan" data-participant-2="CPU"><polygon fill="#181818" points="165.9009,166.6953,155.9009,170.6953,165.9009,174.6953,161.9009,170.6953" style="stroke:#181818;stroke-width:1;"/><line style="stroke:#181818;stroke-width:1;stroke-dasharray:2,2;" x1="159.9009" x2="541.0503" y1="170.6953" y2="170.6953"/><text fill="#000000" font-family="sans-serif" font-size="13" lengthAdjust="spacing" textLength="76.5083" x="171.9009" y="165.6294">imageIndex</text></g><g class="message" data-participant-1="Vulkan" data-participant-2="Swapchain"><polygon fill="#181818" points="968.2368,195.8281,978.2368,199.8281,968.2368,203.8281,972.2368,199.8281" style="stroke:#181818;stroke-width:1;"/><line style="stroke:#181818;stroke-width:1;" x1="552.0503" x2="974.2368" y1="199.8281" y2="199.8281"/><text fill="#000000" font-family="sans-serif" font-size="13" lengthAdjust="spacing" textLength="129.9302" x="559.0503" y="194.7622">acquireNextImage()</text></g><g class="message" data-participant-1="CPU" data-participant-2="Vulkan"><polygon fill="#181818" points="530.0503,224.9609,540.0503,228.9609,530.0503,232.9609,534.0503,228.9609" style="stroke:#181818;stroke-width:1;"/><line style="stroke:#181818;stroke-width:1;" x1="154.9009" x2="536.0503" y1="228.9609" y2="228.9609"/><text fill="#000000" font-family="sans-serif" font-size="13" lengthAdjust="spacing" textLength="177.8486" x="161.9009" y="223.895">resetFences(currentFrame)</text></g><g class="message" data-participant-1="CPU" data-participant-2="CPU"><line style="stroke:#181818;stroke-width:1;" x1="154.9009" x2="196.9009" y1="258.0938" y2="258.0938"/><line style="stroke:#181818;stroke-width:1;" x1="196.9009" x2="196.9009" y1="258.0938" y2="271.0938"/><line style="stroke:#181818;stroke-width:1;" x1="155.9009" x2="196.9009" y1="271.0938" y2="271.0938"/><polygon fill="#181818" points="165.9009,267.0938,155.9009,271.0938,165.9009,275.0938,161.9009,271.0938" style="stroke:#181818;stroke-width:1;"/><text fill="#000000" font-family="sans-serif" font-size="13" lengthAdjust="spacing" textLength="238.6846" x="161.9009" y="253.0278">resetCommandBuffer(currentFrame)</text></g><g class="message" data-participant-1="CPU" data-participant-2="CPU"><line style="stroke:#181818;stroke-width:1;" x1="154.9009" x2="196.9009" y1="300.2266" y2="300.2266"/><line style="stroke:#181818;stroke-width:1;" x1="196.9009" x2="196.9009" y1="300.2266" y2="313.2266"/><line style="stroke:#181818;stroke-width:1;" x1="155.9009" x2="196.9009" y1="313.2266" y2="313.2266"/><polygon fill="#181818" points="165.9009,309.2266,155.9009,313.2266,165.9009,317.2266,161.9009,313.2266" style="stroke:#181818;stroke-width:1;"/><text fill="#000000" font-family="sans-serif" font-size="13" lengthAdjust="spacing" textLength="235.1616" x="161.9009" y="295.1606">recordCommandBuffer(imageIndex)</text></g><g class="message" data-participant-1="CPU" data-participant-2="Vulkan"><polygon fill="#181818" points="530.0503,338.3594,540.0503,342.3594,530.0503,346.3594,534.0503,342.3594" style="stroke:#181818;stroke-width:1;"/><line style="stroke:#181818;stroke-width:1;" x1="154.9009" x2="536.0503" y1="342.3594" y2="342.3594"/><text fill="#00EA90" font-family="sans-serif" font-size="13" lengthAdjust="spacing" textLength="363.1494" x="161.9009" y="337.2935">queue.submit(submitInfo, inFlightFence(currentFrame))</text></g><g class="message" data-participant-1="CPU" data-participant-2="Vulkan"><polygon fill="#181818" points="530.0503,367.4922,540.0503,371.4922,530.0503,375.4922,534.0503,371.4922" style="stroke:#181818;stroke-width:1;"/><line style="stroke:#181818;stroke-width:1;" x1="154.9009" x2="536.0503" y1="371.4922" y2="371.4922"/><text fill="#EA0059" font-family="sans-serif" font-size="13" lengthAdjust="spacing" textLength="206.3433" x="161.9009" y="366.4263">queue.presentKHR(presentInfo)</text></g><g class="message" data-participant-1="CPU" data-participant-2="CPU"><line style="stroke:#181818;stroke-width:1;" x1="154.9009" x2="196.9009" y1="400.625" y2="400.625"/><line style="stroke:#181818;stroke-width:1;" x1="196.9009" x2="196.9009" y1="400.625" y2="413.625"/><line style="stroke:#181818;stroke-width:1;" x1="155.9009" x2="196.9009" y1="413.625" y2="413.625"/><polygon fill="#181818" points="165.9009,409.625,155.9009,413.625,165.9009,417.625,161.9009,413.625" style="stroke:#181818;stroke-width:1;"/><text fill="#000000" font-family="sans-serif" font-size="13" lengthAdjust="spacing" textLength="267.6807" x="161.9009" y="395.5591">Update semaphoreIndex &amp; currentFrame</text></g><g class="message" data-participant-1="CPU" data-participant-2="Application"><polygon fill="#181818" points="58.1118,438.7578,48.1118,442.7578,58.1118,446.7578,54.1118,442.7578" style="stroke:#181818;stroke-width:1;"/><line style="stroke:#181818;stroke-width:1;stroke-dasharray:2,2;" x1="52.1118" x2="153.9009" y1="442.7578" y2="442.7578"/><text fill="#000000" font-family="sans-serif" font-size="13" lengthAdjust="spacing" textLength="37.2544" x="64.1118" y="437.6919">ready</text></g><g class="message" data-participant-1="Application" data-participant-2="CPU"><polygon fill="#181818" points="142.9009,467.8906,152.9009,471.8906,142.9009,475.8906,146.9009,471.8906" style="stroke:#181818;stroke-width:1;"/><line style="stroke:#181818;stroke-width:1;" x1="47.1118" x2="148.9009" y1="471.8906" y2="471.8906"/><text fill="#000000" font-family="sans-serif" font-size="13" lengthAdjust="spacing" textLength="83.7891" x="54.1118" y="466.8247">drawFrame()</text></g><g class="message" data-participant-1="CPU" data-participant-2="Vulkan"><polygon fill="#181818" points="530.0503,497.0234,540.0503,501.0234,530.0503,505.0234,534.0503,501.0234" style="stroke:#181818;stroke-width:1;"/><line style="stroke:#181818;stroke-width:1;" x1="154.9009" x2="536.0503" y1="501.0234" y2="501.0234"/><text fill="#000000" font-family="sans-serif" font-size="13" lengthAdjust="spacing" textLength="192.7212" x="161.9009" y="495.9575">waitForFences(currentFrame)</text></g><g class="message" data-participant-1="Swapchain" data-participant-2="Vulkan"><polygon fill="#181818" points="558.0503,526.1563,548.0503,530.1563,558.0503,534.1563,554.0503,530.1563" style="stroke:#181818;stroke-width:1;"/><line style="stroke:#181818;stroke-width:1;stroke-dasharray:2,2;" x1="552.0503" x2="984.2368" y1="530.1563" y2="530.1563"/><text fill="#000000" font-family="sans-serif" font-size="13" lengthAdjust="spacing" textLength="359.8867" x="564.0503" y="525.0903">presentCompleteSemaphore(currentFrame) = signaled</text></g><g class="message" data-participant-1="Vulkan" data-participant-2="GPU"><polygon fill="#181818" points="891.6104,555.2891,901.6104,559.2891,891.6104,563.2891,895.6104,559.2891" style="stroke:#181818;stroke-width:1;"/><line style="stroke:#181818;stroke-width:1;" x1="547.0503" x2="897.6104" y1="559.2891" y2="559.2891"/><text fill="#00EA90" font-family="sans-serif" font-size="13" lengthAdjust="spacing" textLength="263.6372" x="554.0503" y="554.2231">executeRecordedCommands and render</text></g><g class="message" data-participant-1="GPU" data-participant-2="Vulkan"><polygon fill="#181818" points="558.0503,584.4219,548.0503,588.4219,558.0503,592.4219,554.0503,588.4219" style="stroke:#181818;stroke-width:1;"/><line style="stroke:#181818;stroke-width:1;stroke-dasharray:2,2;" x1="552.0503" x2="907.6104" y1="588.4219" y2="588.4219"/><text fill="#000000" font-family="sans-serif" font-size="13" lengthAdjust="spacing" textLength="15.4819" x="564.0503" y="583.356">ok</text></g><g class="message" data-participant-1="Vulkan" data-participant-2="CPU"><polygon fill="#181818" points="165.9009,613.5547,155.9009,617.5547,165.9009,621.5547,161.9009,617.5547" style="stroke:#181818;stroke-width:1;"/><line style="stroke:#181818;stroke-width:1;stroke-dasharray:2,2;" x1="159.9009" x2="546.0503" y1="617.5547" y2="617.5547"/><text fill="#000000" font-family="sans-serif" font-size="13" lengthAdjust="spacing" textLength="227.3921" x="171.9009" y="612.4888">inFlightFence(currentFrame) ready</text></g><g class="message" data-participant-1="Vulkan" data-participant-2="GPU"><polygon fill="#181818" points="891.6104,642.6875,901.6104,646.6875,891.6104,650.6875,895.6104,646.6875" style="stroke:#181818;stroke-width:1;"/><line style="stroke:#181818;stroke-width:1;" x1="547.0503" x2="897.6104" y1="646.6875" y2="646.6875"/><text fill="#000000" font-family="sans-serif" font-size="13" lengthAdjust="spacing" textLength="191.3945" x="554.0503" y="641.6216">render to the acquired image</text></g><g class="message" data-participant-1="GPU" data-participant-2="Vulkan"><polygon fill="#181818" points="558.0503,671.8203,548.0503,675.8203,558.0503,679.8203,554.0503,675.8203" style="stroke:#181818;stroke-width:1;"/><line style="stroke:#181818;stroke-width:1;stroke-dasharray:2,2;" x1="552.0503" x2="907.6104" y1="675.8203" y2="675.8203"/><text fill="#000000" font-family="sans-serif" font-size="13" lengthAdjust="spacing" textLength="332.5601" x="564.0503" y="670.7544">renderFinishedSemaphore(imageIndex) = signaled</text></g><g class="message" data-participant-1="Vulkan" data-participant-2="Application"><polygon fill="#181818" points="58.1118,700.9531,48.1118,704.9531,58.1118,708.9531,54.1118,704.9531" style="stroke:#181818;stroke-width:1;"/><line style="stroke:#181818;stroke-width:1;stroke-dasharray:2,2;" x1="52.1118" x2="546.0503" y1="704.9531" y2="704.9531"/><text fill="#EA0059" font-family="sans-serif" font-size="13" lengthAdjust="spacing" textLength="92.3838" x="64.1118" y="699.8872">present frame</text></g><!--SRC=[XLFBJiCm4BpdArP2Ggr48HSEhKebG0fKIAWgAlV5tZGMYUqw3Yr_JvntchPSajXPpyxCZf5PPU1HwrWmj499JwEnWWcDqiBpQjDRVsRnD_PBNbORw6ryx56p28K4p-lWmcJXu6R03Uu3WmcDnfwNxxWV9UuCaEqoOUYT3dQPuDQL8BFY1otLlO_N3c4-cJGGmfrRIau7ZzDnSVbo7LkMbxisTGEkXbAo0Kb6wOXbnf2qXQnnNLYeBQgULPAWv4zP69AvMCoKuVtgLi_GhZbJSJwzAzyddFgBNKOPtQRPLoBig7mjPQXkGCWW5jkePDllFvxV5I2BSzY4ldy_hR2raoFjs-jwL7sw1WECGin6SsTWIWdgI9bI0rn3jtsbA3_IIOhp0VdlV-61OyPx53PGvkH8wicxf7H7Nwd8BTSnMVgeoVQFmmEaOYin9duYL9sTDYrjqjm56OoA3iGoI-jYu5IFF8NyaQlFdJADfmru3kIzL7PLy3DGtz0bu6e6D-Byz2kd1snB2c0Ls8Zg-y7BkmN_C2hF1aAAD2BUEje9SiVF0Vk6IpyKC4XaDJe8dPBQhJy0]--></g></svg>